<svg xmlns="http://www.w3.org/2000/svg" viewBox="0 0 239.57 435.98"><defs><style>.cls-1,.cls-2{fill:#414042;}.cls-1{stroke:#fff;stroke-miterlimit:10;stroke-width:3px;}.cls-3{fill:#fff;}</style></defs><title>code-nerd_1</title><g id="Layer_2" data-name="Layer 2"><g id="Layer_1-2" data-name="Layer 1"><path class="cls-1" d="M152.83,144.28c9.92,13.2,17.76,8.61,26.91,19.63,4.71,5.68,6,12.75,8.43,26.65l13.4,1.52c-3.14-1.76,10.09-17.58,12.8-20.82,9.22-11,10.93-10.15,15.43-16.58,2.3-3.27,12.71-18.14,6.13-33.73-4.55-10.78-15.35-17.48-16.95-16.83-1.86.76,5,13.13,3.06,21.93l-.05.23c-.94,4.1-3.22,9.91-4.51,9.87-2.43-.06,2-20.82-9.8-43.25-2.6-4.95-5.87-11-13.27-17.44a34.94,34.94,0,0,0-12.13-6.66C178.54,60.1,169.82,52,155.1,38.39,144,28.08,140.32,27.31,138.72,28.32c-4,2.53,2.83,17.5,0,18.89-2.43,1.2-11.5-7.83-16.37-20.15-5.65-14.3-1.72-23.13-6.3-25.19C109.8-1,96.72,13,90.86,23.28A43.83,43.83,0,0,0,85.58,35.8c-1.73,7.41-.5,12-2.28,12.67C80,49.79,70.1,28.5,68.19,34.62,55.6,74.92,50,52.25,31.9,92.91c-11.77,22.43-7.37,43.19-9.8,43.25-1.29,0-3.57-5.78-4.51-9.87l-.05-.23c-1.93-8.8,4.92-21.17,3.06-21.93-1.6-.65-12.4,6-16.95,16.83-6.59,15.6,3.83,30.46,6.13,33.73,4.5,6.43,6.21,5.56,15.43,16.58,2.71,3.24,15.94,19.05,12.8,20.82l13.4-1.52c2.41-13.9,3.71-21,8.43-26.65,9.15-11,14.67-10.07,28.13-19.63a57.7,57.7,0,0,1,64.86,0ZM19,331.85m159.14-59.78c-2.75,3.31-4.44,5.15-8.83,10a171.55,171.55,0,0,0-15.88,20.64,46.43,46.43,0,0,1-63.14,0c-8.48-8.59-15.71-15.25-20.84-19.84-6.19-5.53-8.36-7.42-11.2-10.85L21.39,289.94l-.88,9.88c.31,5.08,1.08,9.51,1.4,13.24a77.91,77.91,0,0,0,8.4,30c2.6,4.95,5.87,11,13.27,17.44a34.94,34.94,0,0,0,12.13,6.66c3.74,8.72,12.46,16.79,27.18,30.43C94,407.89,97.67,408.67,99.27,407.66c4-2.53-2.83-17.5,0-18.89,2.43-1.2,11.5,7.83,16.37,20.15,5.65,14.3,1.72,23.13,6.3,25.19,6.26,2.82,19.33-11.12,25.19-21.41a43.83,43.83,0,0,0,5.28-12.52c1.73-7.41.5-12,2.28-12.67,3.32-1.32,13.2,20,15.11,13.85,12.6-40.3,18.17-17.63,36.29-58.29a128.94,128.94,0,0,0,9.8-43.25Zm37.74,27.75"/><path class="cls-2" d="M28.52,341.82c-4.13,0-8.3-11.69-8.7-20.91-.4-9.4,2.46-18,5.8-24.76-1.42,1.24-2.7,1.95-3.83,1.95a2.68,2.68,0,0,1-1.07-.22,3.25,3.25,0,0,1-1.7-2c-1.56-4.22.54-14.83,4.6-23.17C29.81,260,40,253.4,44.84,250.22s19.57-12.74,37.48-12.74a48.46,48.46,0,0,1,12.4,1.6c5.4,1.43,23.1,7,24.23,18.34,1.06,10.67-13.07,19.75-21.59,23.43a33.05,33.05,0,0,1-14,3h0c-1.49,0-2.93-.08-4.32-.15s-2.77-.15-4.19-.15a30.35,30.35,0,0,0-11.63,2.2c-17.9,6.91-26.26,25.13-27.16,27.19-3.66,8.4-4.15,16.24-4.48,21.43-.28,4.48-.46,7.18-2.81,7.46h-.27Z"/><path class="cls-3" d="M82.33,239a46.8,46.8,0,0,1,12,1.55c2,.52,22,5.83,23.12,17,1,9.57-12.41,18.33-20.69,21.91a31.88,31.88,0,0,1-13.39,2.86c-2.9,0-5.6-.3-8.51-.3a32.12,32.12,0,0,0-12.17,2.3c-18.62,7.19-27.06,25.86-28,28-6.39,14.69-3.4,27.68-6.08,28h-.1c-2.35,0-6.76-9.27-7.2-19.48-.91-21.08,15.49-38.34,14.6-38.94h0c-1,0-10.33,14.71-14.08,14.71a1.18,1.18,0,0,1-.48-.09c-2.65-1.15-1.19-13.18,3.65-23.12,5.88-12.1,15.51-18.54,20.69-21.91,4.85-3.16,19.2-12.5,36.66-12.5m0-3C64,236,49,245.75,44,249s-15.38,10-21.75,23.11c-4.28,8.8-6.37,19.72-4.66,24.35a4.7,4.7,0,0,0,2.51,2.84,4.17,4.17,0,0,0,1.67.34,4.68,4.68,0,0,0,.64,0A50.49,50.49,0,0,0,18.32,321a44.89,44.89,0,0,0,3.1,14.56c.78,1.93,3.15,7.79,7.1,7.79l.45,0c1.34-.16,3.06-1,3.67-4.11a40.06,40.06,0,0,0,.46-4.74c.32-5.08.81-12.76,4.36-20.92.87-2,9-19.69,26.32-26.39A29,29,0,0,1,74.87,285c1.38,0,2.71.07,4.11.14s2.87.15,4.4.15A34.92,34.92,0,0,0,98,282.22c8.89-3.84,23.63-13.43,22.48-25-.57-5.77-4.9-10.78-12.85-14.9a63.77,63.77,0,0,0-12.49-4.75A50,50,0,0,0,82.33,236Z"/><path class="cls-2" d="M209.11,341.8c-2.35-.27-2.52-3-2.8-7.46-.33-5.19-.83-13-4.48-21.43-.89-2.05-9.25-20.27-27.16-27.19a30.35,30.35,0,0,0-11.63-2.2c-1.42,0-2.83.07-4.19.15s-2.83.15-4.32.15a33.06,33.06,0,0,1-14-3c-8.52-3.68-22.65-12.76-21.59-23.43,1.13-11.37,18.83-16.91,24.23-18.34a48.46,48.46,0,0,1,12.4-1.6c17.91,0,32.64,9.59,37.48,12.74s15,9.79,21.22,22.51c4.05,8.34,6.16,18.95,4.6,23.17a3.25,3.25,0,0,1-1.7,2,2.68,2.68,0,0,1-1.07.22c-1.13,0-2.41-.71-3.83-1.95,3.34,6.79,6.21,15.36,5.8,24.76-.4,9.22-4.57,20.91-8.7,20.91h-.09Z"/><path class="cls-3" d="M155.58,239c17.47,0,31.81,9.34,36.66,12.5,5.18,3.37,14.8,9.81,20.69,21.91,4.84,9.94,6.3,22,3.65,23.12a1.18,1.18,0,0,1-.48.09c-3.75,0-13-14.71-14.08-14.71h0c-.88.61,15.51,17.86,14.6,38.94-.44,10.21-4.86,19.48-7.2,19.48h-.1c-2.69-.31.31-13.3-6.08-28-.93-2.13-9.37-20.8-28-28A32.12,32.12,0,0,0,163,282c-2.92,0-5.61.3-8.51.3a31.88,31.88,0,0,1-13.39-2.86c-8.28-3.58-21.64-12.33-20.69-21.91,1.11-11.21,21.15-16.52,23.12-17a46.81,46.81,0,0,1,12-1.55m0-3v0h0a50,50,0,0,0-12.78,1.65,63.77,63.77,0,0,0-12.49,4.75c-8,4.12-12.27,9.13-12.85,14.9-1.15,11.53,13.59,21.11,22.48,25a34.92,34.92,0,0,0,14.59,3.11c1.53,0,3-.08,4.4-.15s2.73-.14,4.11-.14a29,29,0,0,1,11.09,2.1c17.33,6.69,25.45,24.39,26.32,26.39,3.55,8.16,4,15.84,4.36,20.92a40.06,40.06,0,0,0,.46,4.74c.61,3.12,2.33,4,3.67,4.11l.45,0c4,0,6.32-5.86,7.1-7.79a44.89,44.89,0,0,0,3.1-14.56,50.49,50.49,0,0,0-4.11-21.42,4.68,4.68,0,0,0,.64,0,4.17,4.17,0,0,0,1.67-.34,4.7,4.7,0,0,0,2.51-2.84c1.71-4.63-.38-15.55-4.66-24.35C209.26,259,198.88,252.21,193.88,249s-19.95-13-38.3-13Z"/><path class="cls-2" d="M132.31,246.6a13.38,13.38,0,0,1-13.37-13.37V212.29h-3.43v20.94a13.38,13.38,0,0,1-13.37,13.37H43.75a13.38,13.38,0,0,1-13.37-13.37V191.7a13.38,13.38,0,0,1,13.37-13.37h58.4a13.38,13.38,0,0,1,13.37,13.37v5.47h3.43V191.7a13.38,13.38,0,0,1,13.37-13.37h58.4a13.38,13.38,0,0,1,13.37,13.37v41.54a13.38,13.38,0,0,1-13.37,13.37Zm7.86-59.34a10.38,10.38,0,0,0-10.37,10.37V227.3a10.38,10.38,0,0,0,10.37,10.37h43.46A10.38,10.38,0,0,0,194,227.3V197.63a10.38,10.38,0,0,0-10.37-10.37Zm-88.56,0a10.38,10.38,0,0,0-10.37,10.37V227.3a10.38,10.38,0,0,0,10.37,10.37H95.07a10.38,10.38,0,0,0,10.37-10.37V197.63a10.38,10.38,0,0,0-10.37-10.37Z"/><path class="cls-3" d="M190.71,179.83a11.9,11.9,0,0,1,11.87,11.87v41.54a11.9,11.9,0,0,1-11.87,11.87h-58.4a11.9,11.9,0,0,1-11.87-11.87V210.79H114v22.44a11.9,11.9,0,0,1-11.87,11.87H43.75a11.9,11.9,0,0,1-11.87-11.87V191.7a11.9,11.9,0,0,1,11.87-11.87h58.4A11.9,11.9,0,0,1,114,191.7v7h6.43v-7a11.9,11.9,0,0,1,11.87-11.87h58.4m-50.54,59.34h43.46A11.9,11.9,0,0,0,195.5,227.3V197.63a11.9,11.9,0,0,0-11.87-11.87H140.17a11.9,11.9,0,0,0-11.87,11.87V227.3a11.9,11.9,0,0,0,11.87,11.87m-88.57,0H95.07a11.9,11.9,0,0,0,11.87-11.87V197.63a11.9,11.9,0,0,0-11.87-11.87H51.61a11.9,11.9,0,0,0-11.87,11.87V227.3a11.9,11.9,0,0,0,11.87,11.87m139.1-62.34h-58.4a14.89,14.89,0,0,0-14.87,14.87v4H117v-4a14.89,14.89,0,0,0-14.87-14.87H43.75A14.89,14.89,0,0,0,28.88,191.7v41.54A14.89,14.89,0,0,0,43.75,248.1h58.4A14.89,14.89,0,0,0,117,233.23V213.79h.43v19.44a14.89,14.89,0,0,0,14.87,14.87h58.4a14.89,14.89,0,0,0,14.87-14.87V191.7a14.89,14.89,0,0,0-14.87-14.87Zm-50.54,59.34a8.88,8.88,0,0,1-8.87-8.87V197.63a8.88,8.88,0,0,1,8.87-8.87h43.46a8.88,8.88,0,0,1,8.87,8.87V227.3a8.88,8.88,0,0,1-8.87,8.87Zm-88.57,0a8.88,8.88,0,0,1-8.87-8.87V197.63a8.88,8.88,0,0,1,8.87-8.87H95.07a8.88,8.88,0,0,1,8.87,8.87V227.3a8.88,8.88,0,0,1-8.87,8.87Z"/></g></g></svg>