<svg xmlns="http://www.w3.org/2000/svg" viewBox="0 0 321.87 512.37"><defs><style>.cls-1{fill:#d1d3d4;}.cls-2{fill:#bcbec0;}.cls-3{fill:#414042;}.cls-4{fill:#808285;}.cls-5{fill:#f1f2f2;}.cls-6{fill:#a7a9ac;}.cls-7{fill:#939598;}.cls-8{fill:#231f20;}.cls-9{fill:#e6e7e8;}.cls-10{fill:none;stroke:#414042;stroke-miterlimit:10;stroke-width:8.14px;}</style></defs><title>Asset 1</title><g id="Layer_2" data-name="Layer 2"><g id="Layer_1-2" data-name="Layer 1"><polygon class="cls-1" points="15.79 226.32 15.79 167.1 28.95 97.37 90.79 26.32 127.63 17.11 160.87 0 160.87 450 134.21 450 102.63 430.26 65.79 406.58 47.37 376.32 36.84 322.37 25 325 15.79 307.89 0 231.58 15.79 226.32"/><polygon class="cls-2" points="65.79 406.58 65.79 450 160.87 512.37 160.87 450 134.21 450 65.79 406.58"/><polygon class="cls-1" points="52.63 477.63 43.42 443.42 65.79 406.58 65.79 450 160.87 512.37 52.63 477.63"/><polygon class="cls-3" points="26.32 469.74 52.63 477.63 43.42 443.42 65.79 406.58 26.32 442.11 26.32 469.74"/><polygon class="cls-3" points="113.33 406.58 102.63 430.26 134.21 450 160.87 450 160.87 432.89 131.75 428.29 113.33 406.58"/><polygon class="cls-3" points="160.87 388.16 160.87 406.58 131.75 397.37 131.75 381.58 160.87 388.16"/><polygon class="cls-4" points="102.63 350 131.75 364.47 160.87 369.74 160.87 350 131.75 350 102.63 350"/><polygon class="cls-3" points="120.33 205.26 138.75 211.84 138.75 225 72.79 225 92.53 205.26 120.33 205.26"/><polygon class="cls-3" points="160.87 126.32 119.74 114.47 80.43 126.32 65.79 136.84 52.63 196.05 26.32 237.93 15.79 226.32 15.79 167.1 28.95 97.37 90.79 26.32 127.63 17.11 160.87 0 160.87 126.32"/><circle class="cls-3" cx="113.26" cy="240.4" r="13.4"/><polygon class="cls-2" points="87.43 250.87 100.86 234 128.03 231.03 138.75 250.87 146.47 236.84 138.75 225 101.74 225 72.79 225 59.63 250.87 87.43 250.87"/><polygon class="cls-2" points="130.66 253.46 91.43 253.46 117.26 262.37 130.66 253.46"/><polygon class="cls-5" points="115.42 351.33 138.14 362.63 160.87 366.74 160.87 351.33 138.14 351.33 115.42 351.33"/><polygon class="cls-2" points="24.7 292.98 24.7 253.75 15.79 279.58 24.7 292.98"/><polygon class="cls-6" points="132.35 322.3 155 327.35 141.6 317.26 132.35 322.3"/><polygon class="cls-2" points="121.68 313.14 141.12 287.06 121.18 298.91 121.68 313.14"/><circle class="cls-5" cx="117.37" cy="240.37" r="3.33"/><polygon class="cls-2" points="306.08 226.32 306.08 167.1 292.92 97.37 231.08 26.32 194.24 17.11 161 0 161 450 187.66 450 219.24 430.26 256.08 406.58 274.5 376.32 285.03 322.37 296.87 325 306.08 307.89 321.87 231.58 306.08 226.32"/><polygon class="cls-6" points="256.08 406.58 256.08 450 161 512.37 161 450 187.66 450 256.08 406.58"/><polygon class="cls-7" points="269.24 477.63 278.45 443.42 256.08 406.58 256.08 450 161 512.37 269.24 477.63"/><polygon class="cls-3" points="295.55 469.74 269.24 477.63 278.45 443.42 256.08 406.58 295.55 442.11 295.55 469.74"/><polygon class="cls-3" points="208.54 406.58 219.24 430.26 187.66 450 161 450 161 432.89 190.12 428.29 208.54 406.58"/><polygon class="cls-3" points="161 388.16 161 406.58 190.12 397.37 190.12 381.58 161 388.16"/><polygon class="cls-4" points="219.24 350 190.12 364.47 161 369.74 161 350 190.12 350 219.24 350"/><polygon class="cls-3" points="202.54 205.26 184.12 211.84 184.12 225 250.08 225 230.34 205.26 202.54 205.26"/><polygon class="cls-8" points="161 126.32 202.13 114.47 241.43 126.32 256.08 136.84 269.24 196.05 295.55 237.93 306.08 226.32 306.08 167.1 292.92 97.37 231.08 26.32 194.24 17.11 161 0 161 126.32"/><circle class="cls-3" cx="209.61" cy="240.4" r="13.4"/><polygon class="cls-6" points="235.43 250.87 222.01 234 194.83 231.03 184.12 250.87 176.4 236.84 184.12 225 221.13 225 250.08 225 263.24 250.87 235.43 250.87"/><polygon class="cls-6" points="192.2 253.46 231.43 253.46 205.61 262.37 192.2 253.46"/><polygon class="cls-9" points="206.45 351.33 183.72 362.63 161 366.74 161 351.33 183.72 351.33 206.45 351.33"/><polygon class="cls-6" points="297.17 292.98 297.17 253.75 306.08 279.58 297.17 292.98"/><polygon class="cls-6" points="188.37 323.38 167.47 328.04 179.29 316.28 188.37 323.38"/><polygon class="cls-2" points="200.19 313.14 180.75 287.06 200.69 298.91 200.19 313.14"/><circle class="cls-5" cx="212.5" cy="240.37" r="3.33"/><rect class="cls-10" x="50.43" y="214.64" width="98" height="65.51" rx="9.77" ry="9.77"/><rect class="cls-10" x="174.61" y="214.64" width="98" height="65.51" rx="9.77" ry="9.77"/><rect class="cls-3" x="149.43" y="224.41" width="22.98" height="22.98"/><polygon class="cls-3" points="295.55 237.93 272.61 249.43 272.61 226.44 306.08 226.32 295.55 237.93"/><polygon class="cls-3" points="25.14 237.57 48.08 249.06 48.08 226.07 14.61 225.95 25.14 237.57"/></g></g></svg>