<svg xmlns="http://www.w3.org/2000/svg" viewBox="0 0 320.87 512.37"><defs><style>.cls-1{fill:#d1d3d4;}.cls-2{fill:#bcbec0;}.cls-3{fill:#414042;}.cls-4{fill:#808285;}.cls-5{fill:#f1f2f2;}.cls-6{fill:#a7a9ac;}.cls-7{fill:#939598;}.cls-8{fill:#231f20;}.cls-9{fill:#e6e7e8;}.cls-10{fill:none;stroke:#414042;stroke-miterlimit:10;stroke-width:8.14px;}</style></defs><title>davallan</title><g id="Layer_2" data-name="Layer 2"><g id="Layer_1-2" data-name="Layer 1"><polygon class="cls-1" points="15.79 226.32 15.79 167.1 28.95 97.37 90.79 26.32 127.63 17.11 160.87 0 160.87 450 134.21 450 102.63 430.26 65.79 406.58 47.37 376.32 36.84 322.37 25 325 15.79 307.89 0 231.58 15.79 226.32"/><polygon class="cls-2" points="65.79 406.58 65.79 450 160.87 512.37 160.87 450 134.21 450 65.79 406.58"/><polygon class="cls-1" points="52.63 477.63 43.42 443.42 65.79 406.58 65.79 450 160.87 512.37 52.63 477.63"/><polygon class="cls-3" points="26.32 469.74 52.63 477.63 43.42 443.42 65.79 406.58 26.32 442.11 26.32 469.74"/><polygon class="cls-3" points="113.33 406.58 102.63 430.26 134.21 450 160.87 450 160.87 432.89 131.75 428.29 113.33 406.58"/><polygon class="cls-3" points="160.87 388.16 160.87 406.58 131.75 397.37 131.75 381.58 160.87 388.16"/><polygon class="cls-4" points="102.63 350 131.75 364.47 160.87 369.74 160.87 350 131.75 350 102.63 350"/><polygon class="cls-3" points="120.33 205.26 138.75 211.84 138.75 225 72.79 225 92.53 205.26 120.33 205.26"/><polygon class="cls-3" points="160.87 126.32 119.74 114.47 80.43 126.32 65.79 136.84 52.63 196.05 26.32 237.93 15.79 226.32 15.79 167.1 28.95 97.37 90.79 26.32 127.63 17.11 160.87 0 160.87 126.32"/><circle class="cls-3" cx="113.26" cy="240.4" r="13.4"/><polygon class="cls-2" points="87.43 250.87 100.86 234 128.03 231.03 138.75 250.87 146.47 236.84 138.75 225 101.74 225 72.79 225 59.63 250.87 87.43 250.87"/><polygon class="cls-2" points="130.66 253.46 91.43 253.46 117.26 262.37 130.66 253.46"/><polygon class="cls-5" points="115.42 351.33 138.14 362.63 160.87 366.74 160.87 351.33 138.14 351.33 115.42 351.33"/><polygon class="cls-2" points="24.7 292.98 24.7 253.75 15.79 279.58 24.7 292.98"/><polygon class="cls-6" points="132.35 322.3 155 327.35 141.6 317.26 132.35 322.3"/><polygon class="cls-2" points="121.68 313.14 141.12 287.06 121.18 298.91 121.68 313.14"/><circle class="cls-5" cx="117.37" cy="240.37" r="3.33"/><polygon class="cls-2" points="305.08 226.32 305.08 167.1 291.92 97.37 230.08 26.32 193.24 17.11 160 0 160 450 186.66 450 218.24 430.26 255.08 406.58 273.5 376.32 284.03 322.37 295.87 325 305.08 307.89 320.87 231.58 305.08 226.32"/><polygon class="cls-6" points="255.08 406.58 255.08 450 160 512.37 160 450 186.66 450 255.08 406.58"/><polygon class="cls-7" points="268.24 477.63 277.45 443.42 255.08 406.58 255.08 450 160 512.37 268.24 477.63"/><polygon class="cls-3" points="294.55 469.74 268.24 477.63 277.45 443.42 255.08 406.58 294.55 442.11 294.55 469.74"/><polygon class="cls-3" points="207.54 406.58 218.24 430.26 186.66 450 160 450 160 432.89 189.12 428.29 207.54 406.58"/><polygon class="cls-3" points="160 388.16 160 406.58 189.12 397.37 189.12 381.58 160 388.16"/><polygon class="cls-4" points="218.24 350 189.12 364.47 160 369.74 160 350 189.12 350 218.24 350"/><polygon class="cls-3" points="201.54 205.26 183.12 211.84 183.12 225 249.08 225 229.34 205.26 201.54 205.26"/><polygon class="cls-8" points="160 126.32 201.13 114.47 240.43 126.32 255.08 136.84 268.24 196.05 294.55 237.93 305.08 226.32 305.08 167.1 291.92 97.37 230.08 26.32 193.24 17.11 160 0 160 126.32"/><circle class="cls-3" cx="208.61" cy="240.4" r="13.4"/><polygon class="cls-6" points="234.43 250.87 221.01 234 193.83 231.03 183.12 250.87 175.4 236.84 183.12 225 220.13 225 249.08 225 262.24 250.87 234.43 250.87"/><polygon class="cls-6" points="191.2 253.46 230.43 253.46 204.61 262.37 191.2 253.46"/><polygon class="cls-9" points="205.45 351.33 182.72 362.63 160 366.74 160 351.33 182.72 351.33 205.45 351.33"/><polygon class="cls-6" points="296.17 292.98 296.17 253.75 305.08 279.58 296.17 292.98"/><polygon class="cls-6" points="187.37 323.38 166.47 328.04 178.29 316.28 187.37 323.38"/><circle class="cls-5" cx="211.5" cy="240.37" r="3.33"/><rect class="cls-10" x="50.43" y="214.64" width="98" height="65.51" rx="9.77" ry="9.77"/><rect class="cls-10" x="173.61" y="214.64" width="98" height="65.51" rx="9.77" ry="9.77"/><rect class="cls-3" x="149.43" y="224.41" width="22.98" height="22.98"/><polygon class="cls-3" points="295.55 237.93 272.61 249.43 272.61 226.44 306.08 226.32 295.55 237.93"/><polygon class="cls-3" points="25.14 237.57 48.08 249.06 48.08 226.07 14.61 225.95 25.14 237.57"/></g></g></svg>