<svg xmlns="http://www.w3.org/2000/svg" viewBox="0 0 320.87 546.75"><defs><style>.cls-1{fill:#e2d4b5;}.cls-2{fill:#d2c7ae;}.cls-3{fill:#414042;}.cls-4{fill:#6d6e71;}.cls-5{fill:#b7aea2;}.cls-6{fill:#f1f2f2;}.cls-7{fill:#c1b8a7;}.cls-8{fill:#231f20;}.cls-9{fill:#58595b;}.cls-10{fill:#e6e7e8;}.cls-11{fill:none;stroke:#414042;stroke-miterlimit:10;stroke-width:8.14px;}</style></defs><title>davallan_7</title><g id="Layer_2" data-name="Layer 2"><g id="Layer_1-2" data-name="Layer 1"><polygon class="cls-1" points="15.79 226.32 15.79 167.1 28.95 97.37 90.79 26.32 127.63 17.11 160.87 0 160.87 450 134.21 450 102.63 430.26 65.79 406.58 47.37 376.32 36.84 322.37 25 325 15.79 307.89 0 231.58 15.79 226.32"/><polygon class="cls-2" points="65.79 406.58 65.79 450 160.87 512.37 160.87 450 134.21 450 65.79 406.58"/><polygon class="cls-1" points="52.63 477.63 43.42 443.42 65.79 406.58 65.79 450 160.87 512.37 52.63 477.63"/><polygon class="cls-3" points="113.33 406.58 102.63 430.26 134.21 450 160.87 450 160.87 432.89 131.75 428.29 113.33 406.58"/><polygon class="cls-4" points="160.87 388.16 160.87 406.58 131.75 381.58 131.75 381.58 160.87 388.16"/><polygon class="cls-3" points="116.81 205.26 138.75 211.84 138.75 225 60.21 225 83.71 205.26 116.81 205.26"/><polygon class="cls-3" points="160.87 126.32 119.74 114.47 80.43 126.32 65.79 136.84 52.63 196.05 26.32 237.93 15.79 226.32 15.79 167.1 28.95 97.37 90.79 26.32 127.63 17.11 160.87 0 160.87 126.32"/><circle class="cls-3" cx="113.26" cy="240.4" r="13.4"/><polygon class="cls-2" points="79.58 250.87 94.79 234 125.58 231.03 137.72 250.87 149.43 247.39 148.03 215.13 98.76 214.52 51.26 215.13 58.39 270.23 79.58 250.87"/><polygon class="cls-1" points="126.66 250.41 79.58 250.87 112.52 268.33 126.66 250.41"/><polygon class="cls-2" points="25.13 295.36 25.13 256.13 16.22 281.95 25.13 295.36"/><polygon class="cls-5" points="132.35 322.3 155 327.35 141.6 317.26 132.35 322.3"/><polygon class="cls-2" points="121.68 313.14 141.12 287.06 121.18 298.91 121.68 313.14"/><circle class="cls-6" cx="117.37" cy="240.37" r="3.33"/><polygon class="cls-2" points="305.08 226.32 305.08 167.1 291.92 97.37 230.08 26.32 193.24 17.11 160 0 160 450 186.66 450 218.24 430.26 255.08 406.58 273.5 376.32 284.03 322.37 295.87 325 305.08 307.89 320.87 231.58 305.08 226.32"/><polygon class="cls-7" points="255.08 406.58 255.08 450 160 512.37 160 450 186.66 450 255.08 406.58"/><polygon class="cls-5" points="268.24 477.63 277.45 443.42 255.08 406.58 255.08 450 160 512.37 268.24 477.63"/><polygon class="cls-8" points="207.54 406.58 218.24 430.26 186.66 450 160 450 160 432.89 189.12 428.29 207.54 406.58"/><polygon class="cls-9" points="160 388.16 160 406.58 189.12 381.58 189.12 381.58 160 388.16"/><polygon class="cls-5" points="218.24 350 189.12 350 160.87 350 160 350 131.75 350 102.63 350 131.75 364.47 160 369.58 160 369.74 160.43 369.66 160.87 369.74 160.87 369.58 189.12 364.47 218.24 350"/><polygon class="cls-3" points="205.1 205.26 183.12 211.84 183.12 225 261.84 225 238.28 205.26 205.1 205.26"/><polygon class="cls-8" points="160 126.32 201.13 114.47 240.43 126.32 255.08 136.84 268.24 196.05 294.55 237.93 305.08 226.32 305.08 167.1 291.92 97.37 230.08 26.32 193.24 17.11 160 0 160 126.32"/><circle class="cls-3" cx="208.61" cy="240.4" r="13.4"/><polygon class="cls-7" points="240.81 250.87 225.94 234 195.82 231.03 181.63 269.87 172.42 247.39 174.56 214.52 222.48 215.13 271.61 215.13 263.36 269.92 240.81 250.87"/><polygon class="cls-2" points="195.2 250.44 240.81 250.87 210.07 268.19 195.2 250.44"/><polygon class="cls-10" points="205.45 351.33 182.72 351.33 160.87 351.33 160 351.33 138.14 351.33 115.42 351.33 138.14 362.63 160 366.58 160 366.74 160.43 366.66 160.87 366.74 160.87 366.58 182.72 362.63 205.45 351.33"/><polygon class="cls-7" points="296.17 292.98 296.17 253.75 305.08 279.58 296.17 292.98"/><polygon class="cls-5" points="187.37 323.38 166.47 328.04 178.29 316.28 187.37 323.38"/><circle class="cls-6" cx="211.5" cy="240.37" r="3.33"/><path class="cls-11" d="M251.49,280.15h-58a12,12,0,0,1-11.88-10.28l-6-41.51a12,12,0,0,1,11.88-13.72h70.21a12,12,0,0,1,11.87,13.77l-6.19,41.51A12,12,0,0,1,251.49,280.15Z"/><polygon class="cls-3" points="183.2 250.33 139.66 250.28 149.43 224.41 172.42 224.41 183.2 250.33"/><polygon class="cls-3" points="295.55 237.93 263.86 253.81 272.61 226.44 306.08 226.32 295.55 237.93"/><polygon class="cls-3" points="25.14 237.57 57.45 253.75 48.08 226.07 14.61 225.95 25.14 237.57"/><path class="cls-11" d="M70.26,280.46h58a12,12,0,0,0,11.88-10.28l6-41.51a12,12,0,0,0-11.88-13.72H64.07A12,12,0,0,0,52.2,228.71l6.19,41.51A12,12,0,0,0,70.26,280.46Z"/><polygon class="cls-8" points="255.08 406.59 277.45 443.43 263.86 454.76 160 512.38 160.24 546.75 268.24 477.63 294.55 459.47 294.55 442.12 255.08 406.59"/><polyline class="cls-3" points="26.32 459.47 80.43 494.74 160.24 546.73 160.87 512.03 65.79 459.47 65.79 459.47 43.42 443.42 65.79 406.58 26.32 442.11"/></g></g></svg>