<svg xmlns="http://www.w3.org/2000/svg" viewBox="0 0 669 138.31"><defs><style>.cls-1,.cls-4{fill:none;}.cls-1,.cls-2,.cls-3,.cls-4{stroke:#474c54;stroke-miterlimit:10;}.cls-1,.cls-3{stroke-width:4px;}.cls-2{fill:#fff;stroke-width:3px;}.cls-3,.cls-5{fill:#464c53;}.cls-6{fill:#474c54;}</style></defs><title>Asset 6</title><g id="Layer_2" data-name="Layer 2"><g id="Layer_1-2" data-name="Layer 1"><polygon class="cls-1" points="314 60.15 384 60.15 348.2 86.93 314 60.15"/><polygon class="cls-2" points="302.22 41.31 253 26.31 134 128.1 302.22 102.8 302.22 41.31"/><polygon class="cls-3" points="278 2.31 253 26.31 302.22 41.31 302.22 11.31 278 2.31"/><path class="cls-4" d="M214.55,115.9A161.45,161.45,0,0,0,253,92.46,164.08,164.08,0,0,0,297.69,34"/><path class="cls-4" d="M257.67,109.75C277,92.31,292,69.31,301,44"/><path class="cls-4" d="M301.62,63.5a176.42,176.42,0,0,1-19.38,42.41"/><path class="cls-4" d="M294.09,135.86"/><path class="cls-4" d="M253.94,26.31A160.54,160.54,0,0,0,274,107.15"/><path class="cls-4" d="M244.69,32.17C242,58.36,245,85.53,254.21,110"/><path class="cls-4" d="M234.7,41.26a153.46,153.46,0,0,0,.06,71.68"/><path class="cls-4" d="M217.86,136.58"/><path class="cls-4" d="M223.76,50.37a160.5,160.5,0,0,0-8.82,64.6"/><path class="cls-4" d="M196.36,138.23"/><path class="cls-4" d="M210.14,61.59a160.21,160.21,0,0,0-13.74,57"/><path class="cls-4" d="M174.19,135.34"/><path class="cls-4" d="M191.44,78.22a162.23,162.23,0,0,0-15.27,43.91"/><path class="cls-4" d="M150.77,136.29"/><path class="cls-4" d="M171.52,94.82A162.36,162.36,0,0,0,155,124.94"/><path class="cls-4" d="M264.79,29.73a161.46,161.46,0,0,0,22.84,59.06,162.22,162.22,0,0,0,10.15,14.16"/><path class="cls-4" d="M273.5,32.66a161.67,161.67,0,0,0,27.66,44"/><path class="cls-4" d="M167.06,122.13a212.37,212.37,0,0,0,54.67-22.7,215.82,215.82,0,0,0,69.94-66.89"/><path class="cls-4" d="M160.89,104.35a211.66,211.66,0,0,0,61.56-22.53,215.34,215.34,0,0,0,44.21-32.67,221.6,221.6,0,0,0,15.57-16.52"/><path class="cls-4" d="M187.77,80.29a208.81,208.81,0,0,0,71.39-40c6.45-5.55,12.43-11.62,18.29-17.78"/><polygon class="cls-5" points="307 74.53 307 96.17 451 74.92 307 74.53"/><polyline class="cls-6" points="115.5 129.88 166.5 120.21 577.5 58.38 577.5 129.88"/><rect class="cls-5" y="129.31" width="669" height="9"/></g></g></svg>