<svg xmlns="http://www.w3.org/2000/svg" viewBox="0 0 669 121"><defs><style>.cls-1{fill:#464c53;}.cls-2{fill:#fff;}.cls-3{fill:#474c54;}</style></defs><title>Asset 3</title><g id="Layer_2" data-name="Layer 2"><g id="Layer_1-2" data-name="Layer 1"><rect class="cls-1" y="112" width="669" height="9"/><polygon class="cls-1" points="111 112 169 84 192 63 217 70 226.5 55 244.5 42 255 26 285 26 297 13 326 0 352 13 370 33 393 26 408.5 56 429 46 442 56 457 76 480 98 512 101 536 105 572 112 111 112"/><polygon class="cls-2" points="290.73 40.98 278.91 53.88 266.15 42.1 247.17 54.75 235.17 63.22 245.8 42.76 255.81 27.5 285.66 27.5 297.89 14.24 325.96 1.66 351.07 14.21 369.52 34.71 392.24 27.8 407.84 57.99 426.76 48.76 424.94 56.07 432.05 76.63 424.06 68.98 411.01 80.02 388.2 60.19 374.12 67.77 361.61 79.38 344.76 34.81 341.97 57.13 328.07 38.59 310.68 59.24 302.19 83 290.73 40.98"/><path class="cls-3" d="M325.93,3.32l24.22,12.11L367.77,35,369,36.43l1.83-.56,20.61-6.27,14.35,27.78,1.35,2.6,2.63-1.29,14.71-7.18-.94,3.75-.22.87.29.84,4.94,14.27-2.53-2.42-2-1.87-2.06,1.74L411,78,390,59.74l-1.56-1.36-1.83,1-13,7-.34.18-.28.26-10.73,10L348.31,39.94,344,28.61l-1.5,12-1.58,12.63L330.4,39.2l-2.26-3-2.43,2.89-16,19-.35.41-.18.51-6.79,19-9.49-34.79L291.46,38l-3.67,4-9,9.78L268,41.8l-1.73-1.6-2,1.31-18,12,0,0,0,0-6.92,4.89,7.75-14.92L256.62,29h29.69l.89-1,11.58-12.55L325.93,3.32M326,0,297,13,285,26H255L244.5,42,231,68l17-12,18-12,13,12,11-12,12,44,10-28,16-19,15,20,2.5-20L361,82l14-13,13-7,23,20,13-11,11.5,11-9-26L429,46,408.5,56,393,26l-23,7L352,13,326,0Z"/></g></g></svg>