<svg id="Layer_1" data-name="Layer 1" xmlns="http://www.w3.org/2000/svg" viewBox="0 0 669 163"><defs><style>.cls-1{fill:#464c53;}.cls-2{fill:#fff;}</style></defs><title>skyline</title><rect class="cls-1" y="154" width="669" height="9"/><rect class="cls-1" x="320" y="18" width="49" height="142"/><rect class="cls-2" x="333" y="34" width="5" height="19"/><rect class="cls-2" x="342" y="34" width="5" height="19"/><rect class="cls-2" x="351" y="34" width="5" height="19"/><rect class="cls-2" x="360" y="34" width="5" height="19"/><rect class="cls-2" x="324" y="57" width="5" height="19"/><rect class="cls-2" x="333" y="57" width="5" height="19"/><rect class="cls-2" x="351" y="57" width="5" height="19"/><rect class="cls-2" x="324" y="80" width="5" height="19"/><rect class="cls-2" x="333" y="80" width="5" height="19"/><rect class="cls-2" x="342" y="80" width="5" height="19"/><rect class="cls-2" x="351" y="80" width="5" height="19"/><rect class="cls-2" x="360" y="80" width="5" height="19"/><rect class="cls-2" x="324" y="103" width="5" height="19"/><rect class="cls-2" x="342" y="103" width="5" height="19"/><rect class="cls-2" x="351" y="103" width="5" height="19"/><rect class="cls-2" x="360" y="103" width="5" height="19"/><rect class="cls-2" x="324" y="126" width="5" height="19"/><rect class="cls-2" x="333" y="126" width="5" height="19"/><rect class="cls-2" x="342" y="126" width="5" height="19"/><rect class="cls-2" x="360" y="126" width="5" height="19"/><rect class="cls-1" x="173" y="47" width="39" height="113"/><rect class="cls-2" x="176" y="60" width="5" height="7"/><rect class="cls-2" x="191" y="60" width="4" height="7"/><rect class="cls-2" x="198" y="60" width="4" height="7"/><rect class="cls-2" x="206" y="60" width="3" height="7"/><rect class="cls-2" x="176" y="69" width="5" height="8"/><rect class="cls-2" x="184" y="69" width="4" height="8"/><rect class="cls-2" x="191" y="69" width="4" height="8"/><rect class="cls-2" x="206" y="69" width="3" height="8"/><rect class="cls-2" x="176" y="78" width="5" height="8"/><rect class="cls-2" x="191" y="78" width="4" height="8"/><rect class="cls-2" x="198" y="78" width="4" height="8"/><rect class="cls-2" x="206" y="78" width="3" height="8"/><rect class="cls-2" x="176" y="88" width="5" height="8"/><rect class="cls-2" x="184" y="88" width="4" height="8"/><rect class="cls-2" x="191" y="88" width="4" height="8"/><rect class="cls-2" x="198" y="88" width="4" height="8"/><rect class="cls-2" x="206" y="88" width="3" height="8"/><rect class="cls-2" x="176" y="97" width="5" height="8"/><rect class="cls-2" x="191" y="97" width="4" height="8"/><rect class="cls-2" x="206" y="97" width="3" height="8"/><rect class="cls-2" x="176" y="107" width="5" height="8"/><rect class="cls-2" x="191" y="107" width="4" height="8"/><rect class="cls-2" x="198" y="107" width="4" height="8"/><rect class="cls-2" x="206" y="107" width="3" height="8"/><rect class="cls-2" x="176" y="116" width="5" height="7"/><rect class="cls-2" x="184" y="116" width="4" height="7"/><rect class="cls-2" x="191" y="116" width="4" height="7"/><rect class="cls-2" x="206" y="116" width="3" height="7"/><rect class="cls-2" x="191" y="125" width="4" height="8"/><rect class="cls-2" x="198" y="125" width="4" height="8"/><rect class="cls-2" x="176" y="134" width="5" height="9"/><rect class="cls-2" x="184" y="134" width="4" height="9"/><rect class="cls-2" x="191" y="134" width="4" height="9"/><rect class="cls-2" x="198" y="134" width="4" height="9"/><rect class="cls-2" x="206" y="134" width="3" height="9"/><rect class="cls-2" x="176" y="144" width="5" height="8"/><rect class="cls-2" x="191" y="144" width="4" height="8"/><rect class="cls-2" x="206" y="144" width="3" height="8"/><rect class="cls-1" x="271" y="32" width="44" height="128"/><rect class="cls-2" x="283" y="47" width="4" height="17"/><rect class="cls-2" x="299" y="47" width="4" height="17"/><rect class="cls-2" x="307" y="47" width="4" height="17"/><rect class="cls-2" x="283" y="68" width="4" height="17"/><rect class="cls-2" x="291" y="68" width="4" height="17"/><rect class="cls-2" x="307" y="68" width="4" height="17"/><rect class="cls-2" x="283" y="88" width="4" height="17"/><rect class="cls-2" x="299" y="88" width="4" height="17"/><rect class="cls-2" x="307" y="88" width="4" height="17"/><rect class="cls-2" x="283" y="109" width="4" height="17"/><rect class="cls-2" x="291" y="109" width="4" height="17"/><rect class="cls-2" x="307" y="109" width="4" height="17"/><rect class="cls-2" x="291" y="129" width="4" height="18"/><rect class="cls-2" x="307" y="129" width="4" height="18"/><polygon class="cls-1" points="465 14 427 0 427 160 465 160 465 14"/><rect class="cls-2" x="431" y="23" width="30" height="3"/><rect class="cls-2" x="431" y="29" width="30" height="3"/><rect class="cls-2" x="431" y="35" width="30" height="3"/><rect class="cls-2" x="431" y="41" width="30" height="3"/><rect class="cls-2" x="431" y="47" width="30" height="3"/><rect class="cls-2" x="431" y="53" width="30" height="3"/><rect class="cls-2" x="431" y="59" width="30" height="3"/><rect class="cls-2" x="431" y="65" width="30" height="3"/><rect class="cls-2" x="431" y="77" width="30" height="3"/><rect class="cls-2" x="431" y="83" width="30" height="3"/><rect class="cls-2" x="431" y="89" width="30" height="3"/><rect class="cls-2" x="431" y="95" width="30" height="3"/><rect class="cls-2" x="431" y="101" width="30" height="3"/><rect class="cls-2" x="431" y="107" width="30" height="3"/><rect class="cls-2" x="431" y="113" width="30" height="3"/><rect class="cls-2" x="431" y="119" width="30" height="3"/><rect class="cls-2" x="431" y="131" width="30" height="3"/><rect class="cls-2" x="431" y="137" width="30" height="3"/><rect class="cls-2" x="431" y="143" width="30" height="3"/><path class="cls-1" d="M316,536V524H288v12h-5V678h49V536ZM295,660h-7v-7h7Zm0-10h-7v-7h7Zm0-20h-7v-7h7Zm0-10h-7v-7h7Zm0-10h-7v-7h7Zm0-10h-7v-7h7Zm0-20h-7v-7h7Zm0-10h-7v-7h7Zm0-10h-7v-7h7Zm10,90h-6v-7h6Zm0-10h-6v-7h6Zm0-10h-6v-7h6Zm0-10h-6v-7h6Zm0-10h-6v-7h6Zm0-10h-6v-7h6Zm0-10h-6v-7h6Zm0-10h-6v-7h6Zm0-20h-6v-7h6Zm11,100h-6v-7h6Zm0-10h-6v-7h6Zm0-10h-6v-7h6Zm0-10h-6v-7h6Zm0-20h-6v-7h6Zm0-10h-6v-7h6Zm0-10h-6v-7h6Zm0-10h-6v-7h6Zm0-10h-6v-7h6Zm0-10h-6v-7h6Zm10,100h-6v-7h6Zm0-20h-6v-7h6Zm0-10h-6v-7h6Zm0-10h-6v-7h6Zm0-10h-6v-7h6Zm0-10h-6v-7h6Zm0-10h-6v-7h6Zm0-10h-6v-7h6Zm0-20h-6v-7h6Z" transform="translate(-66 -518)"/><rect class="cls-2" x="222" y="35" width="7" height="7"/><rect class="cls-2" x="233" y="35" width="6" height="7"/><rect class="cls-2" x="244" y="35" width="6" height="7"/><rect class="cls-2" x="254" y="35" width="6" height="7"/><rect class="cls-2" x="222" y="45" width="7" height="7"/><rect class="cls-2" x="244" y="45" width="6" height="7"/><rect class="cls-2" x="222" y="55" width="7" height="7"/><rect class="cls-2" x="233" y="55" width="6" height="7"/><rect class="cls-2" x="244" y="55" width="6" height="7"/><rect class="cls-2" x="254" y="55" width="6" height="7"/><rect class="cls-2" x="233" y="65" width="6" height="7"/><rect class="cls-2" x="244" y="65" width="6" height="7"/><rect class="cls-2" x="254" y="65" width="6" height="7"/><rect class="cls-2" x="222" y="75" width="7" height="7"/><rect class="cls-2" x="233" y="75" width="6" height="7"/><rect class="cls-2" x="244" y="75" width="6" height="7"/><rect class="cls-2" x="254" y="75" width="6" height="7"/><rect class="cls-2" x="222" y="85" width="7" height="7"/><rect class="cls-2" x="233" y="85" width="6" height="7"/><rect class="cls-2" x="244" y="85" width="6" height="7"/><rect class="cls-2" x="254" y="85" width="6" height="7"/><rect class="cls-2" x="222" y="95" width="7" height="7"/><rect class="cls-2" x="233" y="95" width="6" height="7"/><rect class="cls-2" x="254" y="95" width="6" height="7"/><rect class="cls-2" x="222" y="105" width="7" height="7"/><rect class="cls-2" x="233" y="105" width="6" height="7"/><rect class="cls-2" x="244" y="105" width="6" height="7"/><rect class="cls-2" x="254" y="105" width="6" height="7"/><rect class="cls-2" x="233" y="115" width="6" height="7"/><rect class="cls-2" x="244" y="115" width="6" height="7"/><rect class="cls-2" x="254" y="115" width="6" height="7"/><rect class="cls-2" x="222" y="125" width="7" height="7"/><rect class="cls-2" x="233" y="125" width="6" height="7"/><rect class="cls-2" x="244" y="125" width="6" height="7"/><rect class="cls-2" x="222" y="135" width="7" height="7"/><rect class="cls-2" x="244" y="135" width="6" height="7"/><rect class="cls-2" x="254" y="135" width="6" height="7"/><path class="cls-1" d="M482,556V540H467V520h-5v20H448v16h-8V678h49V556Zm-11-11h5v10h-5Zm-9,8v-8h5v10h-5Zm-9-8h5v10h-5Zm-4,117h-5V652h5Zm0-15h-5V637h5Zm0-15h-5V622h5Zm0-15h-5V607h5Zm0-15h-5V592h5Zm0-15h-5V577h5Zm0-15h-5V562h5Zm9,90h-5V652h5Zm0-15h-5V637h5Zm0-30h-5V607h5Zm0-30h-5V577h5Zm0-15h-5V562h5Zm9,90h-5V652h5Zm0-30h-5V622h5Zm0-15h-5V607h5Zm0-15h-5V592h5Zm0-15h-5V577h5Zm0-15h-5V562h5Zm9,90h-5V652h5Zm0-15h-5V637h5Zm0-15h-5V622h5Zm0-15h-5V607h5Zm0-15h-5V592h5Zm0-30h-5V562h5Zm9,90h-5V652h5Zm0-15h-5V637h5Zm0-15h-5V622h5Zm0-15h-5V607h5Zm0-15h-5V592h5Zm0-15h-5V577h5Zm0-15h-5V562h5Z" transform="translate(-66 -518)"/><rect class="cls-2" x="378" y="44" width="5" height="10"/><rect class="cls-2" x="387" y="44" width="5" height="10"/><rect class="cls-2" x="396" y="44" width="5" height="10"/><rect class="cls-2" x="405" y="44" width="5" height="10"/><rect class="cls-2" x="414" y="44" width="5" height="10"/><rect class="cls-2" x="378" y="59" width="5" height="10"/><rect class="cls-2" x="387" y="59" width="5" height="10"/><rect class="cls-2" x="396" y="59" width="5" height="10"/><rect class="cls-2" x="414" y="59" width="5" height="10"/><rect class="cls-2" x="378" y="74" width="5" height="10"/><rect class="cls-2" x="396" y="74" width="5" height="10"/><rect class="cls-2" x="405" y="74" width="5" height="10"/><rect class="cls-2" x="414" y="74" width="5" height="10"/><rect class="cls-2" x="378" y="89" width="5" height="10"/><rect class="cls-2" x="387" y="89" width="5" height="10"/><rect class="cls-2" x="396" y="89" width="5" height="10"/><rect class="cls-2" x="405" y="89" width="5" height="10"/><rect class="cls-2" x="414" y="89" width="5" height="10"/><rect class="cls-2" x="378" y="104" width="5" height="10"/><rect class="cls-2" x="396" y="104" width="5" height="10"/><rect class="cls-2" x="405" y="104" width="5" height="10"/><rect class="cls-2" x="414" y="104" width="5" height="10"/><rect class="cls-2" x="378" y="119" width="5" height="10"/><rect class="cls-2" x="387" y="119" width="5" height="10"/><rect class="cls-2" x="405" y="119" width="5" height="10"/><rect class="cls-2" x="414" y="119" width="5" height="10"/><rect class="cls-2" x="378" y="134" width="5" height="10"/><rect class="cls-2" x="387" y="134" width="5" height="10"/><rect class="cls-2" x="396" y="134" width="5" height="10"/><rect class="cls-2" x="405" y="134" width="5" height="10"/><rect class="cls-2" x="414" y="134" width="5" height="10"/><rect class="cls-2" x="387" y="27" width="5" height="10"/><polygon class="cls-2" points="401 35 401 27 396 27 396 35 396 37 401 37 401 35"/><rect class="cls-2" x="405" y="27" width="5" height="10"/><rect class="cls-1" x="517" y="89" width="36" height="72"/><rect class="cls-2" x="521" y="94" width="12" height="3"/><rect class="cls-2" x="537.75" y="94" width="11.25" height="3"/><rect class="cls-2" x="521" y="102" width="12" height="3"/><rect class="cls-2" x="537.75" y="102" width="11.25" height="3"/><rect class="cls-2" x="521" y="110" width="12" height="3"/><rect class="cls-2" x="537.75" y="110" width="11.25" height="3"/><rect class="cls-2" x="521" y="118" width="12" height="3"/><rect class="cls-2" x="537.75" y="118" width="11.25" height="3"/><rect class="cls-2" x="537.75" y="126" width="11.25" height="3"/><rect class="cls-2" x="521" y="126" width="12" height="3"/><rect class="cls-2" x="521" y="134" width="12" height="3"/><rect class="cls-2" x="537.75" y="134" width="11.25" height="3"/><rect class="cls-2" x="521" y="142" width="12" height="3"/><rect class="cls-2" x="537.75" y="142" width="11.25" height="3"/><rect class="cls-1" x="92" y="89" width="36" height="72"/><rect class="cls-2" x="96.63" y="94" width="7.18" height="3"/><rect class="cls-2" x="106.64" y="94" width="6.73" height="3"/><rect class="cls-2" x="106.64" y="102" width="6.73" height="3"/><rect class="cls-2" x="96.63" y="110" width="7.18" height="3"/><rect class="cls-2" x="106.64" y="110" width="6.73" height="3"/><rect class="cls-2" x="96.63" y="118" width="7.18" height="3"/><rect class="cls-2" x="106.64" y="118" width="6.73" height="3"/><rect class="cls-2" x="106.64" y="126" width="6.73" height="3"/><rect class="cls-2" x="96.63" y="134" width="7.18" height="3"/><rect class="cls-2" x="106.64" y="134" width="6.73" height="3"/><rect class="cls-2" x="96.63" y="142" width="7.18" height="3"/><rect class="cls-2" x="115.63" y="94" width="7.18" height="3"/><rect class="cls-2" x="115.63" y="102" width="7.18" height="3"/><rect class="cls-2" x="115.63" y="118" width="7.18" height="3"/><rect class="cls-2" x="115.63" y="126" width="7.18" height="3"/><rect class="cls-2" x="115.63" y="134" width="7.18" height="3"/><rect class="cls-2" x="106.64" y="142" width="6.73" height="3"/><path class="cls-1" d="M209,591v1h-5v-1h-6v83h36V591Zm21,64H202v-3h28Zm0-8H202v-3h28Zm0-8H202v-3h28Zm0-8H202v-3h28Zm0-8H202v-3h28Zm0-8H202v-3h28Zm0-8H202v-3h28Zm0-8H202v-3h28Z" transform="translate(-66 -518)"/><rect class="cls-2" x="136" y="78" width="28" height="3"/><rect class="cls-2" x="136" y="86" width="28" height="3"/><rect class="cls-2" x="136" y="94" width="28" height="3"/><rect class="cls-2" x="136" y="102" width="28" height="3"/><rect class="cls-2" x="136" y="110" width="28" height="3"/><rect class="cls-2" x="136" y="118" width="28" height="3"/><rect class="cls-2" x="136" y="126" width="28" height="3"/><rect class="cls-2" x="136" y="134" width="28" height="3"/><polygon class="cls-1" points="143 74 143 73 143 64 138 64 138 73 138 74 143 74"/><path class="cls-1" d="M559,591v-8h-5v8h-3V578h-5v13H535v83h44V591Zm0,76h-4v-5h4Zm0-7h-4v-5h4Zm0-7h-4v-5h4Zm0-7h-4v-5h4Zm0-7h-4v-5h4Zm0-7h-4v-5h4Zm0-7h-4v-5h4Zm0-7h-4v-5h4Zm0-7h-4v-5h4Zm0-7h-4v-5h4Zm8,63h-4v-5h4Zm0-7h-4v-5h4Zm0-7h-4v-5h4Zm0-7h-4v-5h4Zm0-7h-4v-5h4Zm0-7h-4v-5h4Zm0-7h-4v-5h4Zm0-7h-4v-5h4Zm0-7h-4v-5h4Zm0-7h-4v-5h4Z" transform="translate(-66 -518)"/><rect class="cls-2" x="497" y="81" width="4" height="5"/><rect class="cls-2" x="497" y="88" width="4" height="5"/><rect class="cls-2" x="497" y="95" width="4" height="5"/><rect class="cls-2" x="497" y="102" width="4" height="5"/><rect class="cls-2" x="497" y="109" width="4" height="5"/><rect class="cls-2" x="497" y="116" width="4" height="5"/><rect class="cls-2" x="497" y="123" width="4" height="5"/><rect class="cls-2" x="497" y="130" width="4" height="5"/><rect class="cls-2" x="497" y="137" width="4" height="5"/><rect class="cls-2" x="497" y="144" width="4" height="5"/><rect class="cls-2" x="489" y="81" width="4" height="5"/><rect class="cls-2" x="489" y="88" width="4" height="5"/><rect class="cls-2" x="489" y="95" width="4" height="5"/><rect class="cls-2" x="489" y="102" width="4" height="5"/><rect class="cls-2" x="489" y="109" width="4" height="5"/><rect class="cls-2" x="489" y="116" width="4" height="5"/><rect class="cls-2" x="489" y="123" width="4" height="5"/><rect class="cls-2" x="489" y="130" width="4" height="5"/><rect class="cls-2" x="489" y="137" width="4" height="5"/><rect class="cls-2" x="489" y="144" width="4" height="5"/></svg>