<svg xmlns="http://www.w3.org/2000/svg" viewBox="0 0 670.92 164"><defs><style>.cls-1,.cls-7{fill:#464c53;}.cls-1{opacity:0.2;}.cls-2{fill:#808991;}.cls-3{opacity:0.46;}.cls-4{fill:#f1f2f2;}.cls-5{fill:#fff;}.cls-6{fill:none;stroke:#474c54;stroke-miterlimit:10;}.cls-8{fill:#8999a5;opacity:0.25;}</style></defs><title>Asset 7</title><g id="Layer_2" data-name="Layer 2"><g id="Layer_1-2" data-name="Layer 1"><polygon class="cls-1" points="425.94 157.17 456.76 142.29 468.98 131.13 482.27 134.85 487.31 126.88 496.88 119.97 502.46 111.47 518.4 111.47 524.78 104.56 540.19 97.65 554.01 104.56 563.57 115.19 575.79 111.47 584.03 127.41 594.92 122.09 601.83 127.41 609.8 138.03 622.03 149.73 639.03 151.32 651.78 153.45 670.92 157.17 425.94 157.17"/><path class="cls-2" d="M332.5,33a91.62,91.62,0,0,0-43,10.5l3,6.73L332,48l39.53,2.24,3-6.73A91.59,91.59,0,0,0,332.5,33Z"/><polygon class="cls-1" points="1.17 155.67 24.41 144.45 33.62 136.03 43.64 138.84 47.44 132.83 54.66 127.62 58.86 121.21 70.88 121.21 75.69 116 87.31 110.79 97.73 116 104.94 124.01 114.16 121.21 120.36 133.23 128.58 129.22 133.79 133.23 139.8 141.24 149.01 150.06 161.83 151.26 171.45 152.86 185.87 155.67 1.17 155.67"/><g class="cls-3"><polygon class="cls-4" points="73.13 126.15 68.45 131.26 63.32 126.52 55.78 131.55 50.64 135.18 55.1 126.59 59.13 120.44 71.1 120.44 75.99 115.15 87.3 110.08 97.42 115.14 104.78 123.32 113.9 120.55 120.15 132.63 127.83 128.88 127.06 131.99 130.03 140.59 126.6 137.3 121.37 141.72 112.22 133.76 106.65 136.76 101.54 141.51 94.88 123.89 93.78 132.68 88.13 125.15 81.26 133.31 77.76 143.12 73.13 126.15"/><path class="cls-5" d="M87.29,110.63l9.82,4.91,7.09,7.87.43.47.61-.19,8.42-2.56,5.83,11.28.45.87.88-.43,6.28-3.07-.48,1.92-.07.29.1.28,2.25,6.51-1.62-1.55-.65-.62-.69.58-4.55,3.85-8.57-7.45-.52-.45-.61.33-5.21,2.8-.11.06-.09.09-4.52,4.2-5.68-15-1.43-3.77-.5,4-.69,5.56-4.52-6-.75-1-.81,1-6.41,7.61-.12.14-.06.17-2.94,8.22-4-14.56-.48-1.75-1.22,1.34-3.73,4.07-4.47-4.13-.58-.53-.65.44-7.23,4.82L52,133.58l3.49-6.72,3.88-5.92H71.32l.3-.32,4.67-5.06,11-4.93m0-1.11-11.62,5.21-4.81,5.21h-12l-4.21,6.41-5.41,10.42L56.06,132l7.21-4.81L68.48,132l4.41-4.81,4.81,17.63,4-11.22L88.11,126l6,8,1-8,6.21,16.43,5.61-5.21,5.21-2.8,9.22,8,5.21-4.41,4.61,4.41L127.58,132l1-4-8.21,4-6.21-12-9.22,2.8-7.21-8-10.42-5.21Z"/></g><path class="cls-6" d="M234.09,161.55"/><path class="cls-6" d="M157.86,162.27"/><path class="cls-6" d="M136.36,163.92"/><path class="cls-6" d="M114.19,161"/><path class="cls-6" d="M90.77,162"/><rect class="cls-7" y="155" width="669" height="9"/><path class="cls-7" d="M541.91,131C503,79.36,423.61,44,332,44S161,79.36,122.09,131Z"/><rect class="cls-7" x="122.09" y="131" width="419.82" height="24"/><path class="cls-2" d="M333,94l-24.5,17H163.76l-3.1-17a177.69,177.69,0,0,0-38.57,37H541.91a176.22,176.22,0,0,0-35.56-34.8L500,111H357Z"/><polygon class="cls-8" points="189.47 86.33 215.73 111 163.2 111 189.47 86.33"/><polygon class="cls-8" points="214.92 83.41 241.89 111 187.95 111 214.92 83.41"/><polygon class="cls-8" points="245.14 83.41 274.5 111 215.78 111 245.14 83.41"/><polygon class="cls-8" points="277.43 80.13 312.5 111 242.35 111 277.43 80.13"/><polygon class="cls-8" points="475.52 83 450.01 111.5 501.04 111.5 475.52 83"/><polygon class="cls-8" points="450.8 83.47 424.6 111.5 476.99 111.5 450.8 83.47"/><polygon class="cls-8" points="421.44 83.47 392.92 111.5 449.96 111.5 421.44 83.47"/><polygon class="cls-8" points="390.07 80.13 356 111.5 424.15 111.5 390.07 80.13"/><polygon class="cls-8" points="333.2 66.19 391.89 111 274.5 111 333.2 66.19"/><rect class="cls-2" x="332" width="1.2" height="36"/><path class="cls-2" d="M334.5,2.5v16c1.09,1.66,2.88,3.83,5.19,4,4.41.33,6.56-6.92,11.35-7.11,1.48-.06,3.7.53,6.49,4l1-10.67c-3.25-4.51-6-5.54-7.95-5.57-5.08-.06-7.94,6.57-11.84,5.12C336.61,7.5,335.3,4.77,334.5,2.5Z"/></g></g></svg>