<svg xmlns="http://www.w3.org/2000/svg" viewBox="0 0 669 164"><defs><style>.cls-1{fill:#464c53;}.cls-2,.cls-3,.cls-5{fill:#fff;}.cls-2{opacity:0.2;}.cls-3,.cls-6{stroke:#474c54;stroke-miterlimit:10;}.cls-4{opacity:0.46;}.cls-6{fill:none;}.cls-7{fill:#474c54;}.cls-8{fill:#8999a5;opacity:0.25;}</style></defs><title>Asset 9</title><g id="Layer_2" data-name="Layer 2"><g id="Layer_1-2" data-name="Layer 1"><rect class="cls-1" x="331" width="1.2" height="36"/><polygon class="cls-2" points="417.94 157.17 448.76 142.29 460.98 131.13 474.27 134.85 479.31 126.88 488.88 119.97 494.46 111.47 510.4 111.47 516.78 104.56 532.19 97.65 546.01 104.56 555.57 115.19 567.79 111.47 576.03 127.41 586.92 122.09 593.83 127.41 601.8 138.03 614.03 149.73 631.03 151.32 643.78 153.45 662.92 157.17 417.94 157.17"/><path class="cls-3" d="M331.5,33a91.62,91.62,0,0,0-43,10.5l3,6.73L331,48l39.53,2.24,3-6.73A91.59,91.59,0,0,0,331.5,33Z"/><polygon class="cls-2" points="3.17 155.67 26.41 144.45 35.62 136.03 45.64 138.84 49.44 132.83 56.66 127.62 60.86 121.21 72.88 121.21 77.69 116 89.31 110.79 99.73 116 106.94 124.01 116.16 121.21 122.36 133.23 130.58 129.22 135.79 133.23 141.8 141.24 151.01 150.06 163.83 151.26 173.45 152.86 187.87 155.67 3.17 155.67"/><g class="cls-4"><polygon class="cls-5" points="75.13 126.15 70.45 131.26 65.32 126.52 57.78 131.55 52.64 135.18 57.1 126.59 61.13 120.44 73.1 120.44 77.99 115.15 89.3 110.08 99.42 115.14 106.78 123.32 115.9 120.55 122.15 132.63 129.83 128.88 129.06 131.99 132.03 140.59 128.6 137.3 123.37 141.72 114.22 133.76 108.65 136.76 103.54 141.51 96.88 123.89 95.78 132.68 90.13 125.15 83.26 133.31 79.76 143.12 75.13 126.15"/><path class="cls-5" d="M89.29,110.63l9.82,4.91,7.09,7.87.43.47.61-.19,8.42-2.56,5.83,11.28.45.87.88-.43,6.28-3.07-.48,1.92-.07.29.1.28,2.25,6.51-1.62-1.55-.65-.62-.69.58-4.55,3.85-8.57-7.45-.52-.45-.61.33-5.21,2.8-.11.06-.09.09-4.52,4.2-5.68-15-1.43-3.77-.5,4-.69,5.56-4.52-6-.75-1-.81,1-6.41,7.61-.12.14-.06.17-2.94,8.22-4-14.56-.48-1.75-1.22,1.34-3.73,4.07-4.47-4.13-.58-.53-.65.44-7.23,4.82L54,133.58l3.49-6.72,3.88-5.92H73.32l.3-.32,4.67-5.06,11-4.93m0-1.11-11.62,5.21-4.81,5.21h-12l-4.21,6.41-5.41,10.42L58.06,132l7.21-4.81L70.48,132l4.41-4.81,4.81,17.63,4-11.22L90.11,126l6,8,1-8,6.21,16.43,5.61-5.21,5.21-2.8,9.22,8,5.21-4.41,4.61,4.41L129.58,132l1-4-8.21,4-6.21-12-9.22,2.8-7.21-8-10.42-5.21Z"/></g><path class="cls-6" d="M233.09,161.55"/><path class="cls-6" d="M156.86,162.27"/><path class="cls-6" d="M135.36,163.92"/><path class="cls-6" d="M113.19,161"/><path class="cls-6" d="M89.77,162"/><rect class="cls-1" y="155" width="669" height="9"/><path class="cls-1" d="M540.91,131C502,79.36,422.61,44,331,44S160,79.36,121.09,131Z"/><rect class="cls-1" x="121.09" y="131" width="419.82" height="24"/><path class="cls-5" d="M122.11,130.5a177.22,177.22,0,0,1,37.2-35.64l3,16.64H307.66L332,94.61l23.83,16.89h143.5L505.56,97a175.7,175.7,0,0,1,34.33,33.52Z"/><path class="cls-7" d="M332,95.22l23.42,16.59.26.18h144l.26-.61,3.17-7.4,2.68-6.24A175.21,175.21,0,0,1,538.87,130H123.14A176.67,176.67,0,0,1,159,95.73l2.82,15.45.15.82H307.81l.26-.18L332,95.22M332,94l-24.5,17H162.76l-3.1-17a177.69,177.69,0,0,0-38.57,37H540.91a176.22,176.22,0,0,0-35.56-34.8L499,111H356L332,94Z"/><polygon class="cls-8" points="188.47 86.33 214.73 111 162.2 111 188.47 86.33"/><polygon class="cls-8" points="213.92 83.41 240.89 111 186.95 111 213.92 83.41"/><polygon class="cls-8" points="244.14 83.41 273.5 111 214.78 111 244.14 83.41"/><polygon class="cls-8" points="276.43 80.13 311.5 111 241.35 111 276.43 80.13"/><polygon class="cls-8" points="474.52 83 449.01 111.5 500.04 111.5 474.52 83"/><polygon class="cls-8" points="449.8 83.47 423.6 111.5 475.99 111.5 449.8 83.47"/><polygon class="cls-8" points="420.44 83.47 391.92 111.5 448.96 111.5 420.44 83.47"/><polygon class="cls-8" points="389.07 80.13 355 111.5 423.15 111.5 389.07 80.13"/><polygon class="cls-8" points="332.2 66.19 390.89 111 273.5 111 332.2 66.19"/><path class="cls-1" d="M333.5,4.5v16c1.09,1.66,2.88,3.83,5.19,4,4.41.33,6.56-6.92,11.35-7.11,1.48-.06,3.7.53,6.49,4l1-10.67c-3.25-4.51-6-5.54-7.95-5.57-5.08-.06-7.94,6.57-11.84,5.12C335.61,9.5,334.3,6.77,333.5,4.5Z"/></g></g></svg>